
<svg width="256px" height="41px" viewBox="0 2 256 41" version="1.1" xmlns="http://www.w3.org/2000/svg" xmlns:xlink="http://www.w3.org/1999/xlink">
    <!-- Generator: Sketch 42 (36781) - http://www.bohemiancoding.com/sketch -->
    <desc>Created with Sketch.</desc>
    <defs></defs>
    <g id="Group-4" stroke="none" stroke-width="1" fill="none" fill-rule="evenodd" transform="translate(0.000000, 3.000000)">
        <polygon id="Shape" fill="#FFFFFF" points="9.18130081 5 9.18130081 16.6162162 4.58130081 16.6162162 4.58130081 5 0 5 0 32.8486486 4.58130081 32.8486486 4.58130081 21.2513514 9.18130081 21.2513514 9.18130081 32.8486486 13.7626016 32.8486486 13.7626016 5"></polygon>
        <path d="M27.5252033,5 L27.5252033,27.0594595 C27.5252033,27.7027027 27.0203252,28.2135135 26.3845528,28.2135135 L24.0845528,28.2135135 C23.4487805,28.2135135 22.9439024,27.7027027 22.9439024,27.0594595 L22.9439024,5 L18.3626016,5 L18.3626016,28.2135135 C18.3626016,30.7864865 20.4195122,32.8486486 22.9439024,32.8486486 L27.5252033,32.8486486 C30.0682927,32.8486486 32.1065041,30.7675676 32.1065041,28.2135135 L32.1065041,5 L27.5252033,5 Z" id="Shape" fill="#FFFFFF"></path>
        <polygon id="Shape" fill="#FFFFFF" points="68.8317073 9.63513514 68.8317073 5 59.6504065 5 55.0691057 5 55.0691057 32.8486486 59.6504065 32.8486486 68.8317073 32.8486486 68.8317073 28.2135135 59.6504065 28.2135135 59.6504065 21.2513514 64.2504065 21.2513514 64.2504065 16.6162162 59.6504065 16.6162162 59.6504065 9.63513514"></polygon>
        <path d="M50.4878049,11.9621622 L50.4878049,9.63513514 L50.4878049,9.63513514 C50.4878049,7.08108108 48.4308943,5 45.8878049,5 L45.8878049,5 L41.3065041,5 C38.7634146,5 36.7252033,7.08108108 36.7252033,9.63513514 L36.7252033,28.2135135 C36.7252033,30.7864865 38.7821138,32.8486486 41.3065041,32.8486486 L45.8878049,32.8486486 L45.8878049,32.8486486 C48.4308943,32.8486486 50.4691057,30.7675676 50.4691057,28.2135135 L50.4691057,16.6162162 L43.5878049,16.6162162 L43.5878049,21.2513514 L45.8878049,21.2513514 L45.8878049,27.0594595 C45.8878049,27.7027027 45.3829268,28.2135135 44.7471545,28.2135135 L42.4471545,28.2135135 C41.8113821,28.2135135 41.3065041,27.7027027 41.3065041,27.0594595 L41.3065041,10.8081081 C41.3065041,10.1648649 41.8113821,9.65405405 42.4471545,9.65405405 L44.7471545,9.65405405 C45.3829268,9.65405405 45.8878049,10.1648649 45.8878049,10.8081081 L45.8878049,11.9621622 L50.4878049,11.9621622 L50.4878049,11.9621622 Z" id="Shape" fill="#FFFFFF"></path>
        <path d="M91.5,0.455585433 L91.5,38.7097026" id="Line" stroke="#FFFFFF" stroke-linecap="square"></path>
        <path d="M116.848,32 L116.848,6.08 L119.296,6.08 L119.296,17.204 L134.632,17.204 L134.632,6.08 L137.08,6.08 L137.08,32 L134.632,32 L134.632,19.292 L119.296,19.292 L119.296,32 L116.848,32 Z M153.748,13.352 L155.908,13.352 L155.908,32 L153.748,32 L153.748,29.408 C153.459999,29.7440017 153.136002,30.0919982 152.776,30.452 C152.415998,30.8120018 152.002003,31.1419985 151.534,31.442 C151.065998,31.7420015 150.520003,31.993999 149.896,32.198 C149.271997,32.402001 148.552004,32.504 147.736,32.504 C146.487994,32.504 145.444004,32.3300017 144.604,31.982 C143.763996,31.6339983 143.086003,31.1480031 142.57,30.524 C142.053998,29.8999969 141.682001,29.1740041 141.454,28.346 C141.225999,27.5179959 141.112,26.6120049 141.112,25.628 L141.112,13.352 L143.272,13.352 L143.272,25.592 C143.272,27.200008 143.643996,28.4299957 144.388,29.282 C145.132004,30.1340043 146.355992,30.56 148.06,30.56 C148.948005,30.56 149.745997,30.3860017 150.454,30.038 C151.162004,29.6899983 151.755998,29.2040031 152.236,28.58 C152.716003,27.9559969 153.087999,27.2120043 153.352,26.348 C153.616002,25.4839957 153.748,24.5360052 153.748,23.504 L153.748,13.352 Z M174.088,13.352 L176.248,13.352 L176.248,30.2 C176.248,31.4480062 176.122001,32.6419943 175.87,33.782 C175.617999,34.9220057 175.168003,35.9239957 174.52,36.788 C173.871997,37.6520043 172.984006,38.3419974 171.856,38.858 C170.727995,39.3740026 169.276009,39.632 167.5,39.632 C166.131993,39.632 164.956005,39.4580017 163.972,39.11 C162.987995,38.7619983 162.184003,38.3240026 161.56,37.796 C160.935997,37.2679974 160.462002,36.6860032 160.138,36.05 C159.813999,35.4139968 159.64,34.8200028 159.616,34.268 L161.92,34.268 C162.088001,34.9640035 162.351998,35.5339978 162.712,35.978 C163.072002,36.4220022 163.497998,36.7699987 163.99,37.022 C164.482003,37.2740013 165.027997,37.4479995 165.628,37.544 C166.228003,37.6400005 166.851997,37.688 167.5,37.688 C168.964007,37.688 170.139996,37.4360025 171.028,36.932 C171.916005,36.4279975 172.587998,35.7680041 173.044,34.952 C173.500002,34.1359959 173.793999,33.2120052 173.926,32.18 C174.058001,31.1479948 174.112,30.0920054 174.088,29.012 C173.391997,30.1640058 172.438006,31.0339971 171.226,31.622 C170.013994,32.2100029 168.748007,32.504 167.428,32.504 C166.011993,32.504 164.782005,32.2340027 163.738,31.694 C162.693995,31.1539973 161.830004,30.4340045 161.146,29.534 C160.461997,28.6339955 159.952002,27.584006 159.616,26.384 C159.279998,25.183994 159.112,23.9360065 159.112,22.64 C159.112,21.2719932 159.267999,19.988006 159.58,18.788 C159.892002,17.587994 160.389997,16.5500044 161.074,15.674 C161.758004,14.7979956 162.627995,14.1080025 163.684,13.604 C164.740005,13.0999975 166.023993,12.848 167.536,12.848 C168.136003,12.848 168.747997,12.9319992 169.372,13.1 C169.996003,13.2680008 170.601997,13.5079984 171.19,13.82 C171.778003,14.1320016 172.317998,14.5279976 172.81,15.008 C173.302003,15.4880024 173.703999,16.027997 174.016,16.628 L174.088,16.628 L174.088,13.352 Z M174.088,22.748 C174.088,21.6199944 173.950002,20.5700049 173.674,19.598 C173.397999,18.6259951 172.996003,17.7860035 172.468,17.078 C171.939998,16.3699965 171.280004,15.812002 170.488,15.404 C169.695996,14.995998 168.796005,14.792 167.788,14.792 C166.875996,14.792 166.036004,14.9539984 165.268,15.278 C164.499996,15.6020016 163.828003,16.0759969 163.252,16.7 C162.675997,17.3240031 162.226002,18.0859955 161.902,18.986 C161.577999,19.8860045 161.416,20.9239941 161.416,22.1 C161.368,23.2760059 161.463999,24.3739949 161.704,25.394 C161.944001,26.4140051 162.327998,27.3079962 162.856,28.076 C163.384003,28.8440038 164.055996,29.4499978 164.872,29.894 C165.688004,30.3380022 166.659995,30.56 167.788,30.56 C168.772005,30.56 169.653996,30.3500021 170.434,29.93 C171.214004,29.5099979 171.873997,28.9460035 172.414,28.238 C172.954003,27.5299965 173.367999,26.7020047 173.656,25.754 C173.944002,24.8059953 174.088,23.8040053 174.088,22.748 Z M193.744,21.38 C193.744,20.4679954 193.618001,19.610004 193.366,18.806 C193.113999,18.001996 192.742003,17.3060029 192.25,16.718 C191.757998,16.1299971 191.140004,15.6620017 190.396,15.314 C189.651996,14.9659983 188.800005,14.792 187.84,14.792 C186.879995,14.792 186.034004,14.9719982 185.302,15.332 C184.569996,15.6920018 183.946003,16.171997 183.43,16.772 C182.913998,17.372003 182.500002,18.067996 182.188,18.86 C181.875999,19.652004 181.672001,20.4919956 181.576,21.38 L193.744,21.38 Z M181.576,23.18 C181.576,24.188005 181.707999,25.1419955 181.972,26.042 C182.236001,26.9420045 182.625998,27.7219967 183.142,28.382 C183.658003,29.0420033 184.311996,29.569998 185.104,29.966 C185.896004,30.362002 186.807995,30.56 187.84,30.56 C189.256007,30.56 190.467995,30.1880037 191.476,29.444 C192.484005,28.6999963 193.155998,27.6440068 193.492,26.276 L195.904,26.276 C195.639999,27.1640044 195.292002,27.9859962 194.86,28.742 C194.427998,29.4980038 193.888003,30.1579972 193.24,30.722 C192.591997,31.2860028 191.824005,31.7239984 190.936,32.036 C190.047996,32.3480016 189.016006,32.504 187.84,32.504 C186.351993,32.504 185.068005,32.2520025 183.988,31.748 C182.907995,31.2439975 182.020004,30.5540044 181.324,29.678 C180.627997,28.8019956 180.112002,27.7700059 179.776,26.582 C179.439998,25.3939941 179.272,24.1160068 179.272,22.748 C179.272,21.3799932 179.469998,20.096006 179.866,18.896 C180.262002,17.695994 180.825996,16.6460045 181.558,15.746 C182.290004,14.8459955 183.183995,14.1380026 184.24,13.622 C185.296005,13.1059974 186.495993,12.848 187.84,12.848 C190.408013,12.848 192.423993,13.7299912 193.888,15.494 C195.352007,17.2580088 196.072,19.8199832 196.048,23.18 L181.576,23.18 Z M207.604,32 L207.604,6.08 L217.072,6.08 C218.752008,6.08 220.137995,6.27199808 221.23,6.656 C222.322005,7.04000192 223.185997,7.56799664 223.822,8.24 C224.458003,8.91200336 224.901999,9.68599562 225.154,10.562 C225.406001,11.4380044 225.532,12.3559952 225.532,13.316 C225.532,14.7560072 225.238003,15.9439953 224.65,16.88 C224.061997,17.8160047 223.300005,18.5539973 222.364,19.094 C221.427995,19.6340027 220.366006,20.0119989 219.178,20.228 C217.989994,20.4440011 216.796006,20.552 215.596,20.552 L210.052,20.552 L210.052,32 L207.604,32 Z M215.668,18.464 C216.820006,18.464 217.851995,18.3920007 218.764,18.248 C219.676005,18.1039993 220.449997,17.834002 221.086,17.438 C221.722003,17.041998 222.213998,16.5020034 222.562,15.818 C222.910002,15.1339966 223.084,14.2400055 223.084,13.136 C223.084,11.5039918 222.550005,10.2680042 221.482,9.428 C220.413995,8.5879958 218.716012,8.168 216.388,8.168 L210.052,8.168 L210.052,18.464 L215.668,18.464 Z M235.36,32.504 C234.159994,32.4799999 233.038005,32.264002 231.994,31.856 C230.949995,31.447998 230.038004,30.8360041 229.258,30.02 C228.477996,29.2039959 227.860002,28.1840061 227.404,26.96 C226.947998,25.7359939 226.72,24.3080082 226.72,22.676 C226.72,21.3079932 226.899998,20.0300059 227.26,18.842 C227.620002,17.6539941 228.159996,16.6160044 228.88,15.728 C229.600004,14.8399956 230.499995,14.1380026 231.58,13.622 C232.660005,13.1059974 233.919993,12.848 235.36,12.848 C236.824007,12.848 238.095995,13.1059974 239.176,13.622 C240.256005,14.1380026 241.155996,14.8339956 241.876,15.71 C242.596004,16.5860044 243.129998,17.623994 243.478,18.824 C243.826002,20.024006 244,21.3079932 244,22.676 C244,24.1640074 243.796002,25.507994 243.388,26.708 C242.979998,27.908006 242.398004,28.9399957 241.642,29.804 C240.885996,30.6680043 239.974005,31.3339977 238.906,31.802 C237.837995,32.2700023 236.656006,32.504 235.36,32.504 Z M241.696,22.676 C241.696,21.5719945 241.576001,20.5400048 241.336,19.58 C241.095999,18.6199952 240.724002,17.7860035 240.22,17.078 C239.715997,16.3699965 239.068004,15.812002 238.276,15.404 C237.483996,14.995998 236.512006,14.792 235.36,14.792 C234.231994,14.792 233.266004,15.0139978 232.462,15.458 C231.657996,15.9020022 231.004002,16.4899963 230.5,17.222 C229.995997,17.9540037 229.624001,18.7939953 229.384,19.742 C229.143999,20.6900047 229.024,21.667995 229.024,22.676 C229.024,23.8280058 229.161999,24.8899951 229.438,25.862 C229.714001,26.8340049 230.115997,27.6679965 230.644,28.364 C231.172003,29.0600035 231.831996,29.5999981 232.624,29.984 C233.416004,30.3680019 234.327995,30.56 235.36,30.56 C236.488006,30.56 237.453996,30.3380022 238.258,29.894 C239.062004,29.4499978 239.715997,28.8560037 240.22,28.112 C240.724002,27.3679963 241.095999,26.5280047 241.336,25.592 C241.576001,24.6559953 241.696,23.684005 241.696,22.676 Z M246.844,32 L246.844,6.08 L249.004,6.08 L249.004,32 L246.844,32 Z M253.396,32 L253.396,6.08 L255.556,6.08 L255.556,32 L253.396,32 Z" id="Huge-Poll" fill="#FFFFFF"></path>
    </g>
</svg>